<?xml version="1.0" encoding="UTF-8"?>
<svg version="1.1" xmlns="http://www.w3.org/2000/svg" width="512" height="512">
<path d="M0 0 C1.25150219 -0.00311998 2.50300438 -0.00623996 3.79243088 -0.00945449 C7.2268804 -0.01772027 10.66121723 -0.01371515 14.09566689 -0.00748205 C17.8148839 -0.0029245 21.53408262 -0.00995757 25.2532959 -0.01544189 C32.52372545 -0.02430254 39.79411355 -0.02242879 47.06454468 -0.01661661 C52.97707457 -0.01208697 58.88959289 -0.01149284 64.80212402 -0.01366425 C65.6458698 -0.01397071 66.48961557 -0.01427718 67.3589294 -0.01459293 C69.07335695 -0.01523243 70.7877845 -0.01588085 72.50221205 -0.01653811 C88.55202944 -0.02223166 104.60182392 -0.01569886 120.65163755 -0.00493738 C134.40220994 0.00399724 148.15274854 0.00244492 161.90332031 -0.0067749 C177.89845459 -0.0174948 193.89356884 -0.02168242 209.88870621 -0.01555037 C211.5965805 -0.01491332 213.3044548 -0.01428458 215.0123291 -0.01366425 C216.27255957 -0.01320142 216.27255957 -0.01320142 217.55824924 -0.01272924 C223.45888169 -0.01100746 229.35950136 -0.01390623 235.26013184 -0.01862335 C242.45788285 -0.02425133 249.65559027 -0.02267561 256.85333633 -0.01206186 C260.52079413 -0.00683085 264.18817945 -0.00470419 267.8556366 -0.01136017 C271.84197099 -0.01848508 275.82812474 -0.00993787 279.81445312 0 C280.95834881 -0.00446144 282.10224449 -0.00892289 283.28080368 -0.01351953 C301.59712841 0.07462401 317.51802863 4.24854409 331.09472656 17.00396729 C344.50780174 31.03036399 347.23411932 48.64895167 347.16119385 67.34674072 C347.16431383 68.59824291 347.16743381 69.8497451 347.17064834 71.1391716 C347.17891411 74.57362112 347.174909 78.00795795 347.1686759 81.44240761 C347.16411835 85.16162462 347.17115142 88.88082334 347.17663574 92.60003662 C347.18549639 99.87046617 347.18362264 107.14085427 347.17781046 114.4112854 C347.17328082 120.32381529 347.17268668 126.23633362 347.17485809 132.14886475 C347.17516456 132.99261052 347.17547103 133.83635629 347.17578678 134.70567012 C347.17642627 136.42009767 347.1770747 138.13452522 347.17773196 139.84895277 C347.1834255 155.89877016 347.17689271 171.94856465 347.16613123 187.99837828 C347.15719661 201.74895066 347.15874892 215.49948926 347.16796875 229.25006104 C347.17868865 245.24519532 347.18287627 261.24030956 347.17674422 277.23544693 C347.17610717 278.94332122 347.17547843 280.65119552 347.17485809 282.35906982 C347.17454954 283.19922347 347.17424099 284.03937711 347.17392309 284.90498996 C347.17220131 290.80562241 347.17510008 296.70624208 347.1798172 302.60687256 C347.18544518 309.80462357 347.18386946 317.00233099 347.17325571 324.20007706 C347.1680247 327.86753486 347.16589804 331.53492017 347.17255402 335.20237732 C347.17967892 339.18871171 347.17113172 343.17486546 347.16119385 347.16119385 C347.16565529 348.30508953 347.17011673 349.44898521 347.17471337 350.6275444 C347.08656984 368.94386913 342.91264976 384.86476936 330.15722656 398.44146729 C316.13082986 411.85454246 298.51224217 414.58086004 279.81445312 414.50793457 C278.56295094 414.51105455 277.31144875 414.51417453 276.02202225 414.51738906 C272.58757273 414.52565484 269.1532359 414.52164972 265.71878624 414.51541662 C261.99956922 414.51085907 258.28037051 414.51789214 254.56115723 414.52337646 C247.29072767 414.53223711 240.02033958 414.53036336 232.74990845 414.52455118 C226.83737856 414.52002154 220.92486023 414.51942741 215.0123291 414.52159882 C214.16858333 414.52190528 213.32483756 414.52221175 212.45552373 414.5225275 C210.74109618 414.523167 209.02666862 414.52381542 207.31224108 414.52447268 C191.26242369 414.53016623 175.2126292 414.52363343 159.16281557 414.51287195 C145.41224319 414.50393733 131.66170458 414.50548965 117.91113281 414.51470947 C101.91599853 414.52542937 85.92088429 414.52961699 69.92574692 414.52348495 C68.21787262 414.52284789 66.50999832 414.52221915 64.80212402 414.52159882 C63.54189356 414.52113599 63.54189356 414.52113599 62.25620389 414.52066381 C56.35557143 414.51894203 50.45495176 414.5218408 44.55432129 414.52655792 C37.35657028 414.5321859 30.15886285 414.53061018 22.96111679 414.51999643 C19.29365899 414.51476542 15.62627368 414.51263876 11.95881653 414.51929474 C7.97248214 414.52641965 3.98632838 414.51787244 0 414.50793457 C-1.14389568 414.51239601 -2.28779137 414.51685746 -3.46635056 414.5214541 C-21.78267528 414.43331056 -37.70357551 410.25939048 -51.28027344 397.50396729 C-64.69334861 383.47757058 -67.41966619 365.8589829 -67.34674072 347.16119385 C-67.3498607 345.90969166 -67.35298069 344.65818947 -67.35619521 343.36876297 C-67.36446099 339.93431345 -67.36045587 336.49997662 -67.35422277 333.06552696 C-67.34966523 329.34630995 -67.35669829 325.62711123 -67.36218262 321.90789795 C-67.37104326 314.6374684 -67.36916951 307.3670803 -67.36335734 300.09664917 C-67.35882769 294.18411928 -67.35823356 288.27160095 -67.36040497 282.35906982 C-67.36071143 281.51532405 -67.3610179 280.67157828 -67.36133365 279.80226445 C-67.36197315 278.0878369 -67.36262158 276.37340935 -67.36327884 274.6589818 C-67.36897238 258.60916441 -67.36243958 242.55936993 -67.3516781 226.50955629 C-67.34274348 212.75898391 -67.3442958 199.00844531 -67.35351562 185.25787354 C-67.36423553 169.26273925 -67.36842315 153.26762501 -67.3622911 137.27248764 C-67.36165405 135.56461335 -67.3610253 133.85673905 -67.36040497 132.14886475 C-67.36009642 131.3087111 -67.35978787 130.46855746 -67.35946997 129.60294461 C-67.35774818 123.70231216 -67.36064695 117.80169249 -67.36536407 111.90106201 C-67.37099205 104.703311 -67.36941633 97.50560358 -67.35880259 90.30785751 C-67.35357157 86.64039971 -67.35144491 82.9730144 -67.35810089 79.30555725 C-67.3652258 75.31922286 -67.3566786 71.33306911 -67.34674072 67.34674072 C-67.35120217 66.20284504 -67.35566361 65.05894936 -67.36026025 63.88039017 C-67.27211671 45.56406544 -63.09819663 29.64316521 -50.34277344 16.06646729 C-36.31637674 2.65339211 -18.69778905 -0.07292547 0 0 Z " fill="#5FCE73" transform="translate(116.0927734375,48.74603271484375)"/>
<path d="M0 0 C9.77177715 8.48893444 16.7968705 17.63060038 22.72265625 29.09375 C23.06047119 29.7338501 23.39828613 30.3739502 23.74633789 31.03344727 C26.33306286 36.22326473 27.48845597 41.38666371 28.41015625 47.09375 C27.39985352 47.19864746 27.39985352 47.19864746 26.36914062 47.30566406 C-4.24979945 50.55122997 -35.40014884 57.79255713 -56.58984375 82.09375 C-69.05614361 98.30390682 -72.39268574 117.19320071 -73.15234375 137.09375 C-73.19552734 138.15464844 -73.23871094 139.21554687 -73.28320312 140.30859375 C-73.38840371 142.90354151 -73.49054494 145.49857084 -73.58984375 148.09375 C-86.9427804 148.78047246 -98.62724538 147.23177674 -111.50952148 143.66625977 C-112.19602783 143.47733154 -112.88253418 143.28840332 -113.58984375 143.09375 C-114.22019531 142.83851563 -114.85054687 142.58328125 -115.5 142.3203125 C-118.7894995 141.96369386 -120.58911573 143.54454374 -123.34375 145.27734375 C-124.44525391 145.95732422 -125.54675781 146.63730469 -126.68164062 147.33789062 C-127.83910442 148.06811917 -128.99599977 148.79924947 -130.15234375 149.53125 C-132.4194634 150.95504036 -134.69259363 152.36791359 -136.96875 153.77734375 C-137.97494385 154.41212646 -138.9811377 155.04690918 -140.01782227 155.70092773 C-142.58984375 157.09375 -142.58984375 157.09375 -145.58984375 157.09375 C-143.6824134 148.07065749 -141.69304863 139.07339071 -139.58984375 130.09375 C-140.13511719 129.68125 -140.68039063 129.26875 -141.2421875 128.84375 C-160.0505731 114.44006325 -171.88653752 98.33625602 -177.58984375 75.09375 C-177.85244995 74.14326782 -177.85244995 74.14326782 -178.12036133 73.17358398 C-182.27077997 54.786992 -176.01749682 35.72750618 -166.58984375 20.09375 C-150.47045392 -4.89231718 -124.54285312 -18.04214009 -96.3984375 -24.65625 C-62.73769983 -30.97586698 -26.30383961 -21.67669825 0 0 Z " fill="#FDFDFD" transform="translate(289.58984375,163.90625)"/>
<path d="M0 0 C0.98226562 0.33692871 0.98226562 0.33692871 1.984375 0.68066406 C22.54224736 7.9757355 38.75687781 22.93906291 48.3359375 42.39453125 C54.63203293 56.03607136 55.53085418 72.75949436 50.3203125 86.98828125 C43.27526298 103.05849776 33.66291328 115.22472448 19 125 C19.56918716 130.91954643 20.80782931 136.43241035 22.37890625 142.16796875 C22.9742938 144.88278619 23.1163641 147.23255821 23 150 C19.52273007 148.91031661 16.84536821 147.26295097 13.92578125 145.14453125 C13.17490234 144.60505859 12.42402344 144.06558594 11.65039062 143.50976562 C10.0989231 142.38342872 8.5595612 141.2402149 7.03320312 140.08007812 C1.93900078 136.47728481 -1.30781772 135.39379182 -7.49169922 136.44091797 C-9.11455061 136.80263976 -10.73728035 137.16490794 -12.35986328 137.52783203 C-19.64733862 139.12490306 -26.61262733 139.26283134 -34.0625 139.1875 C-35.88491211 139.1865332 -35.88491211 139.1865332 -37.74414062 139.18554688 C-47.54044749 139.13776001 -56.32673225 138.60860944 -65.625 135.4375 C-66.3991626 135.17428955 -67.1733252 134.9110791 -67.97094727 134.63989258 C-89.24715476 127.11795703 -106.80928823 113.48730107 -117 93 C-123.86149604 77.1914468 -124.02401422 59.32249214 -118 43.1875 C-108.72937281 22.28792817 -90.81297225 8.17515068 -69.84765625 -0.0078125 C-47.63190818 -7.74827891 -22.200223 -7.76801483 0 0 Z " fill="#FDFDFD" transform="translate(348,224)"/>
<path d="M0 0 C4.1460495 1.71249871 6.76513235 4.10967484 9 8 C9.67902043 12.57961555 9.58691297 16.57905282 7.8125 20.875 C2.79585295 26.7565862 2.79585295 26.7565862 -1.59375 27.3515625 C-5.64726735 27.47142457 -9.08589281 27.31118542 -12.9375 26 C-16.73947259 22.3132387 -18.66769443 18.07690984 -19.5 12.875 C-18.66599201 8.07945403 -16.05177472 5.17551292 -12.875 1.625 C-8.62358803 -0.77797198 -4.77458636 -0.64606614 0 0 Z " fill="#61CE75" transform="translate(254,184)"/>
<path d="M0 0 C4.1460495 1.71249871 6.76513235 4.10967484 9 8 C9.67902043 12.57961555 9.58691297 16.57905282 7.8125 20.875 C2.79585295 26.7565862 2.79585295 26.7565862 -1.59375 27.3515625 C-5.64726735 27.47142457 -9.08589281 27.31118542 -12.9375 26 C-16.73947259 22.3132387 -18.66769443 18.07690984 -19.5 12.875 C-18.66599201 8.07945403 -16.05177472 5.17551292 -12.875 1.625 C-8.62358803 -0.77797198 -4.77458636 -0.64606614 0 0 Z " fill="#61CE75" transform="translate(184,184)"/>
<path d="M0 0 C3.23857278 1.30921027 4.60256422 2.52033613 6.8125 5.1875 C8.93275089 10.20914684 8.59978568 14.32691364 6.8125 19.3125 C4.68082803 22.473255 3.56986793 23.63281654 0 25 C-4.1258218 25.62094308 -8.09195514 25.94816953 -11.91015625 24.05078125 C-16.24054837 20.6779697 -17.70100645 17.34211611 -18.375 12.0625 C-17.80678186 7.42205185 -15.60235845 4.44519749 -12.16796875 1.34765625 C-8.35868431 -1.02027732 -4.33564363 -0.51380192 0 0 Z " fill="#61CE75" transform="translate(347,255)"/>
<path d="M0 0 C3.43403788 2.00011167 6.21175747 4.42351494 8 8 C8.40331428 13.24308569 7.86051133 16.56127553 5 21 C2.72592877 23.61862748 1.09679557 24.80375063 -2.3359375 25.41796875 C-6.71511648 25.66125647 -9.98564303 25.53903514 -13.5 22.75 C-17.29670124 18.57362864 -18.57013513 15.93271597 -18.4609375 10.1015625 C-17.60803882 6.21292275 -14.90176501 3.59354645 -12 1 C-8.24289828 -0.87855086 -4.08021262 -0.66379578 0 0 Z " fill="#61CE75" transform="translate(289,255)"/>
</svg>
